<?xml version="1.0" encoding="utf-8"?>
<!-- Generator: Adobe Illustrator 16.0.0, SVG Export Plug-In . SVG Version: 6.00 Build 0)  -->
<!DOCTYPE svg PUBLIC "-//W3C//DTD SVG 1.1//EN" "http://www.w3.org/Graphics/SVG/1.1/DTD/svg11.dtd">
<svg version="1.1" xmlns="http://www.w3.org/2000/svg" xmlns:xlink="http://www.w3.org/1999/xlink" x="0px" y="0px" width="276px"
	 height="276px" viewBox="0 0 276 276" enable-background="new 0 0 276 276" xml:space="preserve">
<g id="Layer_2" display="none">
	<rect display="inline" opacity="0.5" fill="#B8B7B7" width="275.996" height="276.333"/>
</g>
<g id="Layer_1">
	<rect x="140.932" y="142.151" fill="#FFFFFF" width="38.822" height="11.357"/>
	<rect x="47.428" y="50.626" fill="#FFFFFF" width="38.822" height="11.357"/>
	<path fill="#C00B1D" d="M111.434,20.667c0.394-1.014-0.113-1.521-0.567-1.521c-2.085,0-4.796,4.91-5.811,4.91
		c-0.397,0-0.734-0.397-0.734-0.737c0-1.014,2.482-3.386,3.22-4.117c2.255-2.144,5.19-3.782,8.463-3.782
		c2.426,0,5.023,1.467,2.992,6.942l-4.065,11.002c-0.338,0.847-0.958,2.259-0.958,3.162c0,0.394,0.224,0.79,0.677,0.79
		c1.692,0,4.797-4.797,5.588-4.797c0.28,0,0.674,0.337,0.674,0.845c0,1.638-6.599,8.636-12.3,8.636
		c-2.031,0-3.441-0.961-3.441-3.105c0-2.705,1.918-7.335,2.314-8.293L111.434,20.667z M114.479,9.552
		c0-2.482,2.146-4.513,4.627-4.513c2.258,0,3.894,1.521,3.894,3.836c0,2.595-2.143,4.516-4.682,4.516
		C116.004,13.392,114.479,11.868,114.479,9.552"/>
	<path fill="#EDE5D0" d="M169.046,2.787h-19.403c-1.079,0-1.956,0.877-1.956,1.957v36.299c0,1.08,0.877,1.957,1.956,1.957h19.403
		c1.079,0,1.954-0.877,1.954-1.957V4.744C171,3.664,170.125,2.787,169.046,2.787 M155.195,40.115h-4.261v-4.26h4.261V40.115z
		 M155.195,33.851h-4.261v-4.257h4.261V33.851z M161.597,40.115h-4.26v-4.26h4.26V40.115z M161.597,33.851h-4.26v-4.257h4.26V33.851
		z M157.525,26.462c0-1.006,0.813-1.82,1.821-1.82c1.006,0,1.82,0.814,1.82,1.82c0,1.005-0.814,1.822-1.82,1.822
		C158.339,28.284,157.525,27.467,157.525,26.462 M167.915,40.115h-4.26v-4.26h4.26V40.115z M167.915,33.851h-4.26v-4.257h4.26
		V33.851z M167.915,23.8h-16.98V5.919h16.98V23.8z"/>
	<path fill="#EDE5D0" d="M227.703,10.788h-39.354l19.573,16.742L227.703,10.788z M207.913,30.554l-20.077-17.173V36H228V13.553
		L207.913,30.554z"/>
	<path fill="#FFFFFF" d="M73.823,31.598c-1.422-0.6-2.998-1.295-4.418-1.877c-0.402-0.109-0.808-0.22-1.214-0.33
		c-0.483-0.334-0.954-1.438-1.214-1.986c-0.256-0.036-0.514-0.075-0.773-0.111c0.039-0.85,0.567-0.895,0.773-1.545
		c0.182-0.573,0.021-1.318,0.307-1.848c0.203-0.369,0.654-0.372,0.88-0.686c0.206-0.289,0.34-0.788,0.406-1.14
		c0.116-0.641,0.218-1.518-0.086-2.153c-0.173-0.364-0.287-0.4-0.334-0.845c-0.061-0.536,0.158-2.291,0.166-2.67
		c0.023-0.984,0-1.873-0.238-2.831c0,0-0.29-0.868-0.743-1.13l-0.903-0.155l-0.559-0.519c-2.249-1.382-4.659-0.412-5.951,0.11
		c-1.861,0.606-3.036,3.237-2.216,7.13c0.141,0.665-0.364,0.963-0.332,1.328c0.072,0.793,0.087,2.699,0.839,3.17
		c0.068,0.042,0.6,0.176,0.597,0.141c0.075,0.772,0.146,1.544,0.221,2.317c0.188,0.515,0.635,0.57,0.767,1.296l-0.572,0.141
		c-0.261,0.548-0.734,1.652-1.217,1.986c-0.403,0.11-0.81,0.221-1.215,0.33c-1.417,0.582-2.991,1.277-4.415,1.877
		c-1.295,0.547-2.843,0.74-3.312,2.098c0,0.922-0.086,3.097-0.062,4.305h28.193c0.024-1.208-0.062-3.383-0.062-4.305
		C76.666,32.338,75.115,32.145,73.823,31.598 M81.797,31.473c-1.011-0.427-2.135-0.922-3.146-1.34
		c-0.286-0.078-0.576-0.154-0.865-0.236c-0.343-0.234-0.68-1.022-0.865-1.414c-0.182-0.025-0.366-0.053-0.552-0.08
		c0.03-0.605,0.406-0.639,0.552-1.1c0.132-0.41,0.016-0.939,0.222-1.316c0.14-0.262,0.465-0.266,0.626-0.489
		c0.146-0.206,0.242-0.562,0.29-0.812c0.08-0.457,0.154-1.083-0.063-1.536c-0.125-0.26-0.203-0.287-0.239-0.6
		c-0.041-0.385,0.114-1.635,0.119-1.906c0.016-0.701,0-1.334-0.17-2.017c0,0-0.205-0.62-0.53-0.805l-0.642-0.111l-0.399-0.369
		c-1.603-0.985-3.32-0.296-4.242,0.077c-1.327,0.432-2.165,2.309-1.578,5.083c0.099,0.475-0.259,0.686-0.235,0.946
		c0.05,0.563,0.06,1.924,0.593,2.258c0.052,0.033,0.431,0.128,0.428,0.101c0.054,0.553,0.106,1.102,0.157,1.653
		c0.135,0.367,0.453,0.406,0.547,0.922l-0.409,0.101c-0.131,0.279-0.34,0.756-0.576,1.096c0.511,0.215,1.027,0.436,1.534,0.654
		c0.59,0.256,1.175,0.507,1.738,0.744c0.269,0.111,0.55,0.209,0.848,0.313c1.109,0.386,2.369,0.821,2.84,2.185l0.036,0.107v0.113
		c0,0.354,0.015,0.922,0.029,1.521c0.007,0.266,0.013,0.543,0.019,0.82h6.345c0.016-0.862-0.045-2.414-0.045-3.07
		C83.826,32.001,82.723,31.864,81.797,31.473 M89.121,32.093c-0.232-0.674-1.005-0.77-1.646-1.04
		c-0.707-0.299-1.491-0.646-2.198-0.935c-0.2-0.054-0.403-0.11-0.604-0.164c-0.24-0.167-0.474-0.716-0.604-0.99
		c-0.129-0.019-0.257-0.036-0.382-0.054c0.018-0.424,0.28-0.447,0.382-0.77c0.092-0.283,0.011-0.654,0.155-0.92
		c0.098-0.182,0.324-0.184,0.435-0.339c0.105-0.143,0.17-0.391,0.203-0.567c0.057-0.319,0.108-0.754-0.042-1.07
		c-0.089-0.182-0.143-0.2-0.167-0.421c-0.03-0.269,0.078-1.14,0.084-1.328c0.009-0.488,0-0.933-0.12-1.407
		c0,0-0.143-0.433-0.369-0.564l-0.451-0.078L83.52,21.19c-1.119-0.689-2.318-0.206-2.96,0.053c-0.924,0.302-1.513,1.611-1.104,3.547
		c0.071,0.331-0.179,0.481-0.164,0.659c0.035,0.396,0.044,1.346,0.417,1.578c0.033,0.021,0.299,0.09,0.296,0.072
		c0.038,0.381,0.074,0.767,0.11,1.151c0.092,0.257,0.316,0.283,0.382,0.644l-0.287,0.069c-0.106,0.233-0.292,0.659-0.495,0.886
		c0.364,0.155,0.734,0.313,1.099,0.469c0.421,0.182,0.841,0.363,1.244,0.533c0.185,0.078,0.382,0.146,0.591,0.219
		c0.793,0.273,1.778,0.613,2.144,1.676l0.039,0.107v0.113c0,0.251,0.009,0.65,0.019,1.077c0.003,0.063,0.003,0.129,0.006,0.19h4.296
		C89.163,33.635,89.121,32.553,89.121,32.093"/>
	<g>
		<rect x="232" y="36" fill="#371012" width="35" height="4"/>
		<rect x="232" y="26" fill="#5C110F" width="40" height="4"/>
		<rect x="232" y="16" fill="#760E15" width="30" height="4"/>
		<rect x="232" y="6" fill="#C00B1D" width="40" height="4"/>
	</g>
	<g>
		<polygon fill="#C00B1D" points="35.748,81.472 12.527,81.472 12.527,57.618 20.15,57.618 20.15,54.089 9,54.089 9,85 39.277,85 
			39.277,74.249 35.748,74.249 		"/>
		<polygon fill="#EBE3D6" points="27.205,54.089 31.125,58.009 21.695,67.438 26,71.743 35.43,62.313 39.277,66.161 39.277,54.089 
					"/>
	</g>
	<path fill-rule="evenodd" clip-rule="evenodd" fill="#EBE3D6" d="M101.799,52.5c-2.531,0-4.6,2.07-4.6,4.6v16.1
		c0,2.53,2.068,4.6,4.6,4.6h2.301V87l9.269-9.2h16.031c2.531,0,4.601-2.07,4.601-4.6V57.031c0-2.554-2.069-4.531-4.601-4.531
		H101.799z M101.799,59.4h27.601v2.3h-27.601V59.4z M101.799,64h11.5v2.3h-11.5V64z M117.899,64h11.5v2.3h-11.5V64z M101.799,68.6
		h27.601v2.3h-27.601V68.6z"/>
	<path fill="#5C110F" d="M154.682,50.626c-0.674,0-1.205,0.531-1.205,1.206v6.028v17.504c0-0.41-2.316-0.626-3.617-0.626
		c-4.654,0-8.439,2.966-8.439,6.63c0,3.665,3.785,6.631,8.439,6.631c4.387,0,8.004-3.617,8.391-6.028h0.049v-0.603V60.271h16.877
		v15.094c0-0.41-2.313-0.626-3.615-0.626c-4.654,0-8.44,2.966-8.44,6.63c0,3.665,3.786,6.631,8.44,6.631
		c4.388,0,8.004-3.617,8.391-6.028H180V57.86v-6.028c0-0.675-0.555-1.206-1.207-1.206H154.682z"/>
	<g>
		<polygon fill-rule="evenodd" clip-rule="evenodd" fill="#EBE3D6" points="202.888,61.983 202.888,76.45 212.533,69.217 		"/>
		<path fill-rule="evenodd" clip-rule="evenodd" fill="#C00B1D" d="M224.589,52.35h-33.758c-1.325,0-2.411,1.086-2.411,2.412v28.912
			c0,1.326,1.086,2.411,2.411,2.411h33.758c1.325,0,2.411-1.085,2.411-2.411V54.761C227,53.436,225.914,52.35,224.589,52.35z
			 M222.177,81.262h-28.935v-24.09h28.935V81.262z"/>
	</g>
	<path fill-rule="evenodd" clip-rule="evenodd" fill="#FFFFFF" stroke="#FFFFFF" stroke-miterlimit="10" d="M74.559,103.572
		l-9.846,17.688h19.662L74.559,103.572z M54.895,121.26h9.818l-4.895-8.844L54.895,121.26z M87.322,124.208H51.947V97.676h35.375
		V124.208z M49,94.728V136h41.271V94.728H49z"/>
	<g>
		<g>
			<path fill="#FFFFFF" stroke="#FFFFFF" stroke-miterlimit="10" d="M126.402,109.526h-6.371v-8.066h-6.791v8.066h-6.371
				l9.766,11.834L126.402,109.526z"/>
		</g>
		<rect x="102.768" y="125.136" fill="#FFFFFF" stroke="#FFFFFF" stroke-miterlimit="10" width="27.736" height="4.221"/>
	</g>
	<g>
		<g>
			<path fill="#26130C" d="M169.595,109.95h-5.914v-7.484h-6.299v7.484h-5.914l9.062,10.98L169.595,109.95z"/>
		</g>
		<rect x="147.663" y="124.435" fill="#26130C" width="25.736" height="3.916"/>
	</g>
	<g>
		<rect x="222.985" y="100.308" fill-rule="evenodd" clip-rule="evenodd" fill="#EBE3D6" width="2.35" height="7.05"/>
		<rect x="222.985" y="109.708" fill-rule="evenodd" clip-rule="evenodd" fill="#EBE3D6" width="2.35" height="7.05"/>
		<rect x="222.985" y="119.108" fill-rule="evenodd" clip-rule="evenodd" fill="#EBE3D6" width="2.35" height="7.05"/>
		<path fill-rule="evenodd" clip-rule="evenodd" fill="#5C110F" d="M197.985,95.608v37.6h17.95c2.587,0,4.7-2.115,4.7-4.7v-28.2
			c0-2.585-2.113-4.7-4.7-4.7H197.985z"/>
		<path fill-rule="evenodd" clip-rule="evenodd" fill="#5C110F" d="M195.636,95.608c-2.586,0-4.7,2.115-4.7,4.7v28.2
			c0,2.585,2.114,4.7,4.7,4.7V95.608z"/>
	</g>
	<g>
		<polygon fill="#EDE5D0" points="268.464,110.548 236.979,110.548 252.639,123.941 		"/>
		<polygon fill="#9F111B" points="236.979,109.142 268.464,109.142 252.804,95.749 		"/>
		<polygon fill="#9F111B" points="252.631,126.36 236.569,112.621 236.569,130.717 268.701,130.717 268.701,112.759 		"/>
	</g>
	<g>
		<path fill-rule="evenodd" clip-rule="evenodd" fill="#5C110F" d="M13.717,146.868h7.074v11.792h11.793v16.509H13.717V146.868z
			 M23.15,146.891l9.434,9.41H23.15V146.891z M9,142.151v37.734h28.301v-23.561l-14.15-14.173H9z"/>
		<g>
			<path fill-rule="evenodd" clip-rule="evenodd" fill="#EBE3D6" d="M30.226,163.377v-2.358H16.076v2.358H30.226z M30.226,168.093
				v-2.358H16.076v2.358H30.226z M30.226,172.81v-2.357H16.076v2.357H30.226z"/>
		</g>
	</g>
	<polygon fill="#EBE3D6" points="261,82.883 248.21,70.092 261,57.302 256.677,52.979 239.562,70.092 256.677,87.206 	"/>
	<path fill="#EBE3D6" d="M87.977,163.76c0.117-0.865,0.184-1.744,0.184-2.64c0-10.739-8.754-19.446-19.549-19.446
		c-1.072,0-2.125,0.088-3.148,0.257c-1.836-1.197-4.02-1.894-6.371-1.894c-6.445,0-11.664,5.223-11.664,11.667
		c0,2.344,0.689,4.521,1.879,6.352c-0.162,0.998-0.242,2.021-0.242,3.064c0,10.741,8.748,19.448,19.547,19.448
		c1.219,0,2.404-0.118,3.559-0.327c1.791,1.111,3.902,1.759,6.166,1.759C84.779,182,90,176.776,90,170.332
		C90,167.896,89.256,165.632,87.977,163.76z M70.16,173.128c-5.211,0.271-7.65-0.881-9.885-2.979
		c-2.494-2.342-1.492-5.013,0.541-5.148c2.031-0.135,3.25,2.303,4.336,2.981c1.082,0.676,5.203,2.216,7.379-0.272
		c2.371-2.709-1.576-4.109-4.469-4.534c-4.129-0.611-9.344-2.846-8.938-7.249c0.404-4.399,3.736-6.655,7.244-6.974
		c4.471-0.406,7.379,0.677,9.682,2.642c2.66,2.269,1.221,4.806-0.475,5.01c-1.689,0.203-3.586-3.732-7.311-3.792
		c-3.838-0.06-6.434,3.995-1.693,5.147c4.74,1.151,9.818,1.624,11.646,5.959C80.049,168.253,75.375,172.857,70.16,173.128z"/>
	<path fill-rule="evenodd" clip-rule="evenodd" fill="#D2221D" d="M112.43,148.443c-7.543,0-13.678,6.133-13.678,13.676
		s6.135,13.652,13.678,13.652c3.265,0,6.25-1.128,8.601-3.031c0.092,0.188,0.187,0.377,0.351,0.54l8.529,8.507
		c0.448,0.471,1.084,0.705,1.694,0.705s1.221-0.234,1.691-0.705c0.938-0.939,0.938-2.467,0-3.407l-8.507-8.506
		c-0.234-0.235-0.494-0.4-0.799-0.518c1.338-2.114,2.091-4.582,2.091-7.237C126.081,154.576,119.973,148.443,112.43,148.443z
		 M112.43,152.649c5.216,0,9.445,4.254,9.445,9.47c0,1.763-0.494,3.478-1.432,5.005l-0.871,1.363l-1.199,0.964
		c-1.715,1.386-3.76,2.114-5.943,2.114c-5.219,0-9.471-4.229-9.471-9.446C102.959,156.903,107.211,152.649,112.43,152.649z"/>
	<path fill="#D2221D" d="M77.436,68.214h-5.6v0.7h5.6V68.214z M77.436,72.414h-5.6v0.7h5.6V72.414z M77.436,76.614h-5.6v0.7h5.6
		V76.614z M77.436,85.014h-5.6v0.7h5.6V85.014z M77.436,80.814h-5.6v0.7h5.6V80.814z M70.436,68.214h-5.6v0.7h5.6V68.214z
		 M84.436,68.214h-5.6v0.7h5.6V68.214z M58.813,58.661c0.559,0,0.916-0.357,1.178-1.083c0.345-0.976,0.559-2.344,0.559-3.094
		c0-0.821-0.344-1.237-0.975-1.237c-0.548,0-0.953,0.369-1.202,1.107c-0.345,1-0.547,2.344-0.547,3.082
		C57.826,58.244,58.159,58.661,58.813,58.661z M84.436,76.614h-5.6v0.7h5.6V76.614z M84.436,85.014h-5.6v0.7h5.6V85.014z
		 M84.436,80.814h-5.6v0.7h5.6V80.814z M84.436,72.414h-5.6v0.7h5.6V72.414z M56.436,72.414h-5.6v0.7h5.6V72.414z M56.436,68.214
		h-5.6v0.7h5.6V68.214z M56.436,76.614h-5.6v0.7h5.6V76.614z M56.436,85.014h-5.6v0.7h5.6V85.014z M56.436,80.814h-5.6v0.7h5.6
		V80.814z M46.636,48.75v42h42v-42H46.636z M64.882,51.712l0.036,4.7V57.4c0,0.107-0.012,0.464-0.047,1.083
		c0.238-1.511,0.44-2.416,0.536-2.713l1.25-4.058h1.427l0.107,5.105c0,0.119,0,0.666-0.048,1.666
		c0.131-1.035,0.25-1.713,0.345-2.035l1.321-4.736h1.797l-2.844,8.484h-1.606L67.072,55.4c0-0.106-0.012-0.487-0.012-1.154
		c0-0.143,0.012-0.416,0.012-0.809c-0.143,0.94-0.262,1.511-0.321,1.713l-1.452,5.045h-1.796l-0.334-8.484H64.882z M57.16,52.997
		c0.523-0.892,1.416-1.392,2.486-1.392c1.714,0,2.594,1.046,2.594,3.105c0,1.439-0.333,2.868-0.833,3.854
		c-0.571,1.131-1.523,1.738-2.749,1.738c-1.63,0-2.535-1.06-2.535-3.07C56.124,55.651,56.577,53.997,57.16,52.997z M50.46,51.712
		h1.975l0.714,3.618c0.095,0.511,0.297,1.369,0.356,2.641c-0.011-0.167-0.011-0.321-0.011-0.488c0-0.75,0.071-1.464,0.166-2.166
		l0.523-3.605h1.678l-1.345,8.484h-1.725l-0.869-4.069c-0.107-0.523-0.25-1.226-0.31-2.142c-0.071,0.856-0.154,1.487-0.214,1.88
		l-0.595,4.331h-1.69L50.46,51.712z M85.836,87.95h-36.4v-25.2h36.4V87.95z M63.436,85.014h-5.6v0.7h5.6V85.014z M70.436,80.814
		h-5.6v0.7h5.6V80.814z M70.436,72.414h-5.6v0.7h5.6V72.414z M70.436,85.014h-5.6v0.7h5.6V85.014z M70.436,76.614h-5.6v0.7h5.6
		V76.614z M63.436,80.814h-5.6v0.7h5.6V80.814z M63.436,76.614h-5.6v0.7h5.6V76.614z M63.436,72.414h-5.6v0.7h5.6V72.414z
		 M63.436,68.214h-5.6v0.7h5.6V68.214z"/>
	<path fill="#8C1C19" d="M170.51,159.932h-5.6v0.7h5.6V159.932z M170.51,164.132h-5.6v0.7h5.6V164.132z M170.51,168.333h-5.6v0.7
		h5.6V168.333z M170.51,176.732h-5.6v0.7h5.6V176.732z M170.51,172.532h-5.6v0.7h5.6V172.532z M163.51,159.932h-5.6v0.7h5.6V159.932
		z M177.51,159.932h-5.6v0.7h5.6V159.932z M151.888,150.38c0.559,0,0.916-0.357,1.178-1.083c0.345-0.976,0.559-2.344,0.559-3.094
		c0-0.821-0.344-1.237-0.976-1.237c-0.547,0-0.952,0.368-1.202,1.106c-0.345,1-0.547,2.344-0.547,3.082
		C150.9,149.963,151.233,150.38,151.888,150.38z M177.51,168.333h-5.6v0.7h5.6V168.333z M177.51,176.732h-5.6v0.7h5.6V176.732z
		 M177.51,172.532h-5.6v0.7h5.6V172.532z M177.51,164.132h-5.6v0.7h5.6V164.132z M149.51,164.132h-5.6v0.7h5.6V164.132z
		 M149.51,159.932h-5.6v0.7h5.6V159.932z M149.51,168.333h-5.6v0.7h5.6V168.333z M149.51,176.732h-5.6v0.7h5.6V176.732z
		 M149.51,172.532h-5.6v0.7h5.6V172.532z M139.71,140.468v42h42v-42H139.71z M157.957,143.43l0.036,4.701v0.988
		c0,0.106-0.012,0.463-0.047,1.082c0.238-1.511,0.44-2.415,0.535-2.712l1.25-4.058h1.427l0.107,5.105c0,0.119,0,0.666-0.048,1.665
		c0.131-1.035,0.25-1.713,0.345-2.034l1.32-4.736h1.797l-2.844,8.484h-1.606l-0.083-4.795c0-0.107-0.012-0.487-0.012-1.154
		c0-0.143,0.012-0.417,0.012-0.81c-0.143,0.94-0.262,1.511-0.321,1.714l-1.452,5.045h-1.797l-0.333-8.484H157.957z M150.234,144.715
		c0.523-0.892,1.416-1.392,2.486-1.392c1.714,0,2.594,1.046,2.594,3.105c0,1.44-0.333,2.868-0.833,3.855
		c-0.572,1.13-1.523,1.738-2.749,1.738c-1.63,0-2.535-1.06-2.535-3.07C149.198,147.369,149.651,145.715,150.234,144.715z
		 M143.534,143.43h1.975l0.714,3.618c0.095,0.511,0.297,1.369,0.357,2.642c-0.012-0.167-0.012-0.321-0.012-0.488
		c0-0.749,0.071-1.463,0.167-2.166l0.523-3.605h1.678l-1.345,8.484h-1.725l-0.869-4.069c-0.107-0.524-0.25-1.226-0.31-2.142
		c-0.071,0.857-0.154,1.488-0.214,1.88l-0.595,4.332h-1.69L143.534,143.43z M178.91,179.667h-36.4v-25.2h36.4V179.667z
		 M156.51,176.732h-5.6v0.7h5.6V176.732z M163.51,172.532h-5.6v0.7h5.6V172.532z M163.51,164.132h-5.6v0.7h5.6V164.132z
		 M163.51,176.732h-5.6v0.7h5.6V176.732z M163.51,168.333h-5.6v0.7h5.6V168.333z M156.51,172.532h-5.6v0.7h5.6V172.532z
		 M156.51,168.333h-5.6v0.7h5.6V168.333z M156.51,164.132h-5.6v0.7h5.6V164.132z M156.51,159.932h-5.6v0.7h5.6V159.932z"/>
	<g>
		<path fill-rule="evenodd" clip-rule="evenodd" fill="#B5221D" d="M192.91,144.218c-2.531,0-4.6,2.07-4.6,4.6v16.1
			c0,2.53,2.069,4.6,4.6,4.6h2.3v9.2l9.27-9.2h16.031c2.531,0,4.6-2.07,4.6-4.6V148.75c0-2.553-2.069-4.532-4.6-4.532H192.91z
			 M192.91,151.118h27.6v2.3h-27.6V151.118z M192.91,155.718h11.5v2.3h-11.5V155.718z M209.01,155.718h11.5v2.3h-11.5V155.718z
			 M192.91,160.318h27.6v2.3h-27.6V160.318z"/>
	</g>
	<polygon fill="#222222" points="239.562,148.678 252.353,161.468 239.562,174.258 243.886,178.582 261,161.468 243.886,144.354 	
		"/>
	<polygon fill="#F0E9DE" points="239.491,218.79 252.281,206 265.071,218.79 269.395,214.467 252.281,197.353 235.167,214.467 	"/>
	<path fill="#D2221D" d="M23.14,2.439L2.004,23.572l3.977,3.976l17.162-17.156l17.153,17.156l3.977-3.973L23.14,2.439z
		 M8.066,28.721v13.901h10.772V29.989h8.601v12.634h10.772V28.718L23.14,13.65L8.066,28.721z"/>
	<g>
		<rect x="5.972" y="97.221" fill-rule="evenodd" clip-rule="evenodd" fill="#D2221D" width="38.334" height="11.245"/>
		<rect x="5.972" y="112.555" fill-rule="evenodd" clip-rule="evenodd" fill="#751615" width="11.5" height="21.466"/>
		<rect x="21.306" y="112.555" fill-rule="evenodd" clip-rule="evenodd" fill="#F0E9DE" width="23" height="4.089"/>
		<rect x="21.306" y="120.733" fill-rule="evenodd" clip-rule="evenodd" fill="#F0E9DE" width="23" height="4.088"/>
		<rect x="21.306" y="128.91" fill-rule="evenodd" clip-rule="evenodd" fill="#F0E9DE" width="23" height="4.089"/>
	</g>
</g>
</svg>
